<svg xmlns="http://www.w3.org/2000/svg" xmlns:xlink="http://www.w3.org/1999/xlink" version= "1.1" width="200" height="22" viewBox="-4460 574 10000 1060">
<g id="layer1" opacity="0.0">
<g>
<g style="fill:rgb(243,30,0); fill-opacity:1.0; stroke-linejoin: miter">
<path d="M4022.1748,874.9048Q4068.2568,874.9048,4090.5996,900.04065Q4111.546,920.9872,4111.546,953.1052Q4111.546,979.6375,4093.3936,1001.9806Q4082.2217,1015.94495,4065.4639,1024.3236Q4048.707,1032.7021,4022.1748,1032.7021L3575.315,1032.7021L3575.315,895.8514Q3575.315,874.9048,3596.2612,874.9048 Z M-2608.109,860.9404Q-2594.1445,860.9404,-2582.9731,867.9226Q-2571.8018,874.9048,-2564.8193,890.26556L-2419.59,1228.2034L-2793.8352,1228.2034L-2650.0022,890.26556Q-2643.02,873.50836,-2631.8486,866.5262Q-2620.677,860.9404,-2608.109,860.9404 Z M278.32666,888.8692Q342.5625,888.8692,384.45557,905.6264Q426.34863,922.3836,457.0708,950.3124Q489.18848,981.03406,508.73877,1022.9271Q526.8926,1064.8202,526.8926,1112.2991Q526.8926,1155.5886,511.53174,1194.689Q496.1709,1232.3927,468.2422,1261.7179Q437.5205,1295.2323,391.438,1314.7825Q345.35547,1334.3326,278.32666,1334.3326L80.032715,1334.3326Q13.003418,1334.3326,-33.0791,1314.7825Q-79.16113,1295.2323,-109.88281,1261.7179Q-137.81201,1232.3927,-153.17236,1193.2925Q-168.5332,1155.5886,-168.5332,1112.2991Q-168.5332,1064.8202,-148.9834,1022.9271Q-130.82959,981.03406,-98.711426,950.3124Q-67.989746,922.3836,-26.09668,905.6264Q15.796387,888.8692,80.032715,888.8692 Z M-4406.72,638.90686L-4406.72,1582.8984L-4152.5684,1582.8984L-4152.5684,1218.4283L-3589.8044,1218.4283L-3589.8044,1582.8984L-3335.6528,1582.8984L-3335.6528,638.90686L-3589.8044,638.90686L-3589.8044,981.03406L-4152.5684,981.03406L-4152.5684,638.90686 Z M-2609.5054,617.9603Q-2711.4453,617.9603,-2777.0781,661.2499Q-2842.7104,704.5395,-2883.207,792.51495L-3221.145,1541.0054Q-3226.7307,1552.1768,-3230.92,1561.9519Q-3233.713,1571.7269,-3236.5059,1582.8984L-2944.6504,1582.8984Q-2943.254,1574.5199,-2940.461,1566.1411Q-2937.6682,1557.7626,-2934.8755,1549.3839L-2886.0,1436.2725L-2327.4253,1436.2725L-2277.1533,1550.7804Q-2274.3606,1557.7626,-2271.5676,1566.1411Q-2268.775,1573.1233,-2265.982,1582.8984L-1981.1086,1582.8984Q-1983.9016,1571.7269,-1988.0908,1561.9519Q-1990.8838,1552.1768,-1996.4695,1541.0054L-2337.2002,792.51495Q-2377.697,704.5395,-2444.7258,661.2499Q-2510.3584,617.9603,-2609.5054,617.9603 Z M-1880.5652,638.90686L-1880.5652,1582.8984L-1626.4138,1582.8984L-1626.4138,638.90686 Z M-1490.9592,638.90686L-1490.9592,1275.6823Q-1490.9592,1352.4863,-1475.5984,1411.1366Q-1460.2375,1468.3906,-1423.9302,1507.4908Q-1389.0193,1545.1946,-1328.9727,1564.7448Q-1270.322,1582.8984,-1183.7429,1582.8984L-498.09253,1582.8984L-498.09253,1341.3148L-1153.0212,1341.3148Q-1201.8967,1341.3148,-1220.0503,1321.7646Q-1236.8079,1303.6111,-1236.8079,1251.9429L-1236.8079,638.90686 Z M80.032715,638.90686Q-34.475098,638.90686,-121.05469,672.4214Q-206.2373,704.5395,-269.07666,763.1898Q-340.2954,828.8223,-380.792,918.19434Q-421.28833,1007.5663,-421.28833,1110.9026Q-421.28833,1204.4639,-389.17017,1285.4573Q-357.05225,1366.4507,-299.79834,1429.2903Q-234.16602,1500.5087,-140.60449,1542.4017Q-47.043457,1582.8984,80.032715,1582.8984L278.32666,1582.8984Q405.40234,1582.8984,498.96387,1541.0054Q592.5249,1500.5087,658.1577,1429.2903Q715.41113,1366.4507,747.5293,1285.4573Q779.64746,1204.4639,779.64746,1110.9026Q779.64746,1007.5663,739.1509,918.19434Q698.6543,828.8223,627.43604,763.1898Q564.5962,704.5395,478.0171,671.0249Q392.83447,638.90686,278.32666,638.90686 Z M2345.0537,638.90686Q2210.995,638.90686,2210.995,765.98267L2210.995,1451.6334Q2210.995,1582.8984,2343.6572,1582.8984L3203.8628,1582.8984L3203.8628,1341.3148L2486.0933,1341.3148Q2463.751,1341.3148,2463.751,1316.179L2463.751,1201.6711L3199.6729,1201.6711L3199.6729,1020.1343L2463.751,1020.1343L2463.751,912.6086Q2463.751,888.8692,2486.0933,888.8692L3203.8628,888.8692L3203.8628,638.90686 Z M3385.399,638.90686Q3322.56,638.90686,3322.56,697.55725L3322.56,1582.8984L3575.315,1582.8984L3575.315,1247.7535L4015.1924,1247.7535Q4071.0498,1247.7535,4094.79,1267.3036Q4118.5283,1286.8538,4118.5283,1331.5398L4118.5283,1520.0587Q4118.5283,1552.1768,4122.7188,1582.8984L4378.2666,1582.8984Q4375.4736,1563.3483,4374.077,1543.7982Q4374.077,1524.248,4374.077,1493.5265L4374.077,1305.0074Q4374.077,1224.0142,4351.7344,1180.7246Q4330.787,1137.435,4283.3086,1109.5063Q4333.58,1073.1989,4353.131,1021.5307Q4372.6807,971.2589,4372.6807,914.005Q4372.6807,860.9404,4351.7344,812.06506Q4332.1846,764.58624,4297.2734,728.2789Q4258.173,687.7822,4200.919,662.6463Q4143.665,638.90686,4055.6885,638.90686 Z M4793.008,638.90686Q4698.05,638.90686,4640.796,662.6463Q4583.543,684.9894,4545.839,724.0896Q4508.135,763.1898,4485.792,813.46155Q4464.8457,863.7333,4464.8457,920.9872Q4464.8457,979.6375,4485.792,1029.9093Q4506.7383,1078.7845,4544.4424,1117.8849Q4582.1465,1156.9851,4640.796,1180.7246Q4698.05,1203.0675,4793.008,1203.0675L5177.0283,1203.0675Q5204.957,1203.0675,5220.3174,1208.6533Q5234.282,1212.8427,5244.0576,1224.0142Q5263.6074,1243.5642,5263.6074,1274.2858Q5263.6074,1299.4216,5248.246,1317.5754Q5238.4717,1328.7468,5221.714,1335.7291Q5206.3535,1341.3148,5177.0283,1341.3148L4489.9814,1341.3148L4489.9814,1582.8984L5221.714,1582.8984Q5305.501,1582.8984,5364.1514,1556.3661Q5421.4043,1529.8339,5460.505,1485.1478Q5492.623,1447.4441,5512.173,1399.9651Q5530.327,1352.4863,5530.327,1300.8181Q5530.327,1244.9607,5507.9844,1194.689Q5487.037,1144.4172,5449.333,1105.3169Q5411.63,1066.2167,5355.7725,1042.4773Q5301.3115,1020.1343,5221.714,1020.1343L4806.9727,1020.1343Q4784.63,1020.1343,4772.0615,1015.94495Q4760.8896,1013.1521,4752.5107,1006.1699Q4728.7725,986.6197,4728.7725,955.8982Q4728.7725,926.57294,4748.3223,907.0228Q4756.701,898.6442,4770.665,893.0585Q4783.2334,888.8692,4806.9727,888.8692L5485.6406,888.8692L5485.6406,638.90686 Z M857.84814,638.90686Q860.6406,650.07837,864.8301,659.8535Q867.62305,669.6285,873.2085,680.80005L1213.9395,1429.2903Q1292.1396,1602.4486,1487.6416,1602.4486Q1588.1841,1602.4486,1653.8174,1559.1589Q1719.4497,1517.2659,1759.9463,1429.2903L2097.8843,680.80005Q2103.4702,669.6285,2107.6592,659.8535Q2110.4517,650.07837,2113.245,638.90686L1818.5962,638.90686Q1814.4072,657.06055,1807.4248,672.4214L1528.1377,1324.5576Q1521.1553,1341.3148,1511.3804,1348.297Q1501.6055,1353.8827,1489.0376,1353.8827Q1476.4692,1353.8827,1465.2979,1346.9005Q1455.523,1339.9183,1448.5405,1324.5576L1166.46,672.4214Q1160.875,657.06055,1156.685,638.90686 Z"/>
</g>
</g>
</g>
<g id="layer2">
<g>
<g style="fill:rgb(254,254,254); fill-opacity:1.0; stroke-linejoin: miter">
<path d="M-4406.5522,639.1822L-4406.5522,1583.1738L-4152.4004,1583.1738L-4152.4004,1218.7036L-3589.6365,1218.7036L-3589.6365,1583.1738L-3335.4849,1583.1738L-3335.4849,639.1822L-3589.6365,639.1822L-3589.6365,981.3094L-4152.4004,981.3094L-4152.4004,639.1822 Z"/>
</g>
</g>
<g>
<g style="fill:rgb(254,254,254); fill-opacity:1.0; stroke-linejoin: miter">
<path d="M-2608.219,860.8986Q-2594.2544,860.8986,-2583.083,867.8808Q-2571.9116,874.863,-2564.9294,890.22375L-2419.7,1228.1616L-2793.945,1228.1616L-2650.112,890.22375Q-2643.13,873.46655,-2631.9583,866.4844Q-2620.7869,860.8986,-2608.219,860.8986 Z M-2609.6152,617.9185Q-2711.5552,617.9185,-2777.1877,661.20807Q-2842.8203,704.4977,-2883.317,792.47314L-3221.255,1540.9636Q-3226.8406,1552.135,-3231.0298,1561.9102Q-3233.8228,1571.685,-3236.6157,1582.8567L-2944.7603,1582.8567Q-2943.3638,1574.478,-2940.571,1566.0994Q-2937.778,1557.7207,-2934.985,1549.342L-2886.1099,1436.2307L-2327.5352,1436.2307L-2277.2632,1550.7385Q-2274.4705,1557.7207,-2271.6775,1566.0994Q-2268.8848,1573.0815,-2266.0918,1582.8567L-1981.2186,1582.8567Q-1984.0115,1571.685,-1988.2008,1561.9102Q-1990.9937,1552.135,-1996.5793,1540.9636L-2337.31,792.47314Q-2377.807,704.4977,-2444.8357,661.20807Q-2510.4683,617.9185,-2609.6152,617.9185 Z"/>
</g>
</g>
<g>
<g style="fill:rgb(254,254,254); fill-opacity:1.0; stroke-linejoin: miter">
<path d="M-1880.5652,638.90686L-1880.5652,1582.8984L-1626.4136,1582.8984L-1626.4136,638.90686 Z"/>
</g>
</g>
<g>
<g style="fill:rgb(254,254,254); fill-opacity:1.0; stroke-linejoin: miter">
<path d="M-1490.9597,638.9066L-1490.9597,1275.682Q-1490.9597,1352.4861,-1475.5989,1411.1364Q-1460.238,1468.3904,-1423.9307,1507.4906Q-1389.0198,1545.1943,-1328.973,1564.7445Q-1270.3226,1582.8982,-1183.7435,1582.8982L-498.0929,1582.8982L-498.0929,1341.3146L-1153.0219,1341.3146Q-1201.8972,1341.3146,-1220.0509,1321.7644Q-1236.8081,1303.6108,-1236.8081,1251.9426L-1236.8081,638.9066 Z"/>
</g>
</g>
<g>
<g style="fill:rgb(189, 40, 40); fill-opacity:1.0; stroke-linejoin: miter">
<path d="M278.33295,888.8854Q342.5691,888.8854,384.46222,905.6426Q426.3553,922.3998,457.07697,950.32855Q489.195,981.05023,508.74512,1022.9433Q526.8988,1064.8364,526.8988,1112.3153Q526.8988,1155.6049,511.53796,1194.7051Q496.1772,1232.4088,468.24847,1261.734Q437.5268,1295.2485,391.4444,1314.7986Q345.362,1334.3488,278.33295,1334.3488L80.03894,1334.3488Q13.009949,1334.3488,-33.07248,1314.7986Q-79.15494,1295.2485,-109.876526,1261.734Q-137.80527,1232.4088,-153.16608,1193.3086Q-168.52689,1155.6049,-168.52689,1112.3153Q-168.52689,1064.8364,-148.97678,1022.9433Q-130.82306,981.05023,-98.70505,950.32855Q-67.9834,922.3998,-26.090302,905.6426Q15.802826,888.8854,80.03894,888.8854 Z M80.03894,638.92303Q-34.468933,638.92303,-121.048035,672.4376Q-206.23068,704.55566,-269.07034,763.206Q-340.28864,828.83856,-380.7853,918.2105Q-421.28198,1007.5824,-421.28198,1110.9188Q-421.28198,1204.4801,-389.16394,1285.4735Q-357.0459,1366.4668,-299.79196,1429.3065Q-234.15941,1500.5248,-140.59814,1542.4178Q-47.036865,1582.9146,80.03894,1582.9146L278.33295,1582.9146Q405.40875,1582.9146,498.97003,1541.0215Q592.5313,1500.5248,658.1639,1429.3065Q715.4178,1366.4668,747.5358,1285.4735Q779.6539,1204.4801,779.6539,1110.9188Q779.6539,1007.5824,739.1573,918.2105Q698.66046,828.83856,627.4422,763.206Q564.6026,704.55566,478.0235,671.04114Q392.84082,638.92303,278.33295,638.92303 Z"/>
</g>
</g>
<g>
<g style="fill:rgb(254,254,254); fill-opacity:1.0; stroke-linejoin: miter">
<path d="M857.82874,638.91266Q860.62164,650.08417,864.8109,659.85925Q867.6038,669.6343,873.1896,680.8058L1213.9203,1429.2961Q1292.1207,1602.4543,1487.622,1602.4543Q1588.1655,1602.4543,1653.798,1559.1648Q1719.4305,1517.2717,1759.9272,1429.2961L2097.865,680.8058Q2103.4507,669.6343,2107.6401,659.85925Q2110.4329,650.08417,2113.2258,638.91266L1818.5775,638.91266Q1814.3882,657.06635,1807.406,672.42725L1528.1187,1324.5635Q1521.1365,1341.3206,1511.3613,1348.3027Q1501.5863,1353.8884,1489.0183,1353.8884Q1476.4504,1353.8884,1465.2789,1346.9062Q1455.5039,1339.9241,1448.5217,1324.5635L1166.4414,672.42725Q1160.8556,657.06635,1156.6663,638.91266 Z"/>
</g>
</g>
<g>
<g style="fill:rgb(254,254,254); fill-opacity:1.0; stroke-linejoin: miter">
<path d="M2345.079,638.90204Q2211.0212,638.90204,2211.0212,765.97784L2211.0212,1451.6287Q2211.0212,1582.8936,2343.6826,1582.8936L3203.888,1582.8936L3203.888,1341.31L2486.1191,1341.31Q2463.7764,1341.31,2463.7764,1316.1741L2463.7764,1201.6663L3199.6987,1201.6663L3199.6987,1020.12946L2463.7764,1020.12946L2463.7764,912.60376Q2463.7764,888.8644,2486.1191,888.8644L3203.888,888.8644L3203.888,638.90204 Z"/>
</g>
</g>
<g>
<g style="fill:rgb(189, 40, 40); fill-opacity:1.0; stroke-linejoin: miter">
<path d="M4022.024,874.85175Q4068.1064,874.85175,4090.4495,899.9876Q4111.396,920.93414,4111.396,953.0522Q4111.396,979.5845,4093.2424,1001.92755Q4082.0708,1015.8919,4065.3135,1024.2705Q4048.5564,1032.6492,4022.024,1032.6492L3575.164,1032.6492L3575.164,895.79834Q3575.164,874.85175,3596.1108,874.85175 Z M3385.2488,638.8538Q3322.409,638.8538,3322.409,697.5043L3322.409,1582.8455L3575.164,1582.8455L3575.164,1247.7004L4015.0417,1247.7004Q4070.8994,1247.7004,4094.6387,1267.2505Q4118.378,1286.8008,4118.378,1331.4868L4118.378,1520.0056Q4118.378,1552.1238,4122.5674,1582.8455L4378.1157,1582.8455Q4375.3228,1563.2952,4373.9263,1543.7451Q4373.9263,1524.1951,4373.9263,1493.4734L4373.9263,1304.9543Q4373.9263,1223.9612,4351.583,1180.6715Q4330.6367,1137.382,4283.1577,1109.4532Q4333.4297,1073.1458,4352.9795,1021.47766Q4372.53,971.2059,4372.53,913.95197Q4372.53,860.8874,4351.583,812.012Q4332.033,764.5332,4297.122,728.2258Q4258.022,687.7291,4200.768,662.59326Q4143.514,638.8538,4055.5386,638.8538 Z"/>
</g>
</g>
<g>
<g style="fill:rgb(254,254,254); fill-opacity:1.0; stroke-linejoin: miter">
<path d="M4793.494,639.3206Q4698.536,639.3206,4641.282,663.06006Q4584.0283,685.4031,4546.3247,724.50336Q4508.621,763.6036,4486.278,813.8753Q4465.331,864.14703,4465.331,921.40094Q4465.331,980.0513,4486.278,1030.323Q4507.2246,1079.1982,4544.928,1118.2986Q4582.632,1157.3989,4641.282,1181.1383Q4698.536,1203.4812,4793.494,1203.4812L5177.514,1203.4812Q5205.443,1203.4812,5220.8037,1209.067Q5234.768,1213.2563,5244.5435,1224.428Q5264.0933,1243.978,5264.0933,1274.6995Q5264.0933,1299.8354,5248.7324,1317.9893Q5238.9575,1329.1606,5222.2,1336.1428Q5206.8394,1341.7285,5177.514,1341.7285L4490.4673,1341.7285L4490.4673,1583.3123L5222.2,1583.3123Q5305.9863,1583.3123,5364.6367,1556.7798Q5421.8906,1530.2476,5460.991,1485.5615Q5493.109,1447.8579,5512.659,1400.3789Q5530.813,1352.9001,5530.813,1301.2319Q5530.813,1245.3745,5508.4697,1195.1027Q5487.5234,1144.8309,5449.8193,1105.7307Q5412.1157,1066.6304,5356.2583,1042.891Q5301.797,1020.54803,5222.2,1020.54803L4807.4585,1020.54803Q4785.115,1020.54803,4772.5474,1016.3587Q4761.376,1013.56586,4752.9976,1006.5837Q4729.258,987.03345,4729.258,956.31195Q4729.258,926.9867,4748.808,907.4366Q4757.1865,899.058,4771.151,893.4722Q4783.7188,889.28296,4807.4585,889.28296L5486.127,889.28296L5486.127,639.3206 Z"/>
</g>
</g>
<g style="fill:rgb(254,254,254); fill-opacity:1.0; stroke-linejoin: miter">
<path d="M3032.1284,1456.657L3831.2256,1456.6575L4630.3228,1456.658Q4630.3228,1519.9852,4630.3228,1583.3125Q3831.2256,1583.313,3032.1284,1583.3135Q3032.1284,1519.9852,3032.1284,1456.657"/>
</g>
<g style="fill:rgb(0,0,0); fill-opacity:1.0; stroke-linejoin: miter">
<path d="M4393.733,1479.2916L4430.2446,1479.2926L4430.2,1479.2922L4393.733,1479.2916 Z"/>
</g>
<g style="fill:rgb(0,0,0); fill-opacity:1.0; stroke-linejoin: miter">
<path d="M3307.2385,1379.6166L3307.2383,1379.6171L3307.2383,1379.6176L3307.2383,1379.6171L3307.2385,1379.6166L3307.2383,1379.6171L3307.2383,1379.6176Q3307.2383,1379.6171,3307.2385,1379.6166"/>
</g>
<g style="fill:rgb(0,0,0); fill-opacity:1.0; stroke-linejoin: miter">
<path d="M2809.7122,785.8804L2809.712,785.88086L2809.712,785.88135L2809.712,785.88086L2809.7122,785.8804L2809.712,785.88086L2809.712,785.88135Q2809.712,785.88086,2809.7122,785.8804"/>
</g>
<g style="fill:rgb(24, 24, 24); fill-opacity:1.0; stroke-linejoin: miter">
<path d="M3575.164,1341.456L3322.409,1341.4562L3322.409,1456.6434L3575.164,1456.6436L3575.164,1341.456 Z"/>
</g>
<g style="fill:rgb(24, 24, 24); fill-opacity:1.0; stroke-linejoin: miter">
<path d="M4373.9263,1341.4554L4118.378,1341.4557L4118.378,1456.6439L4373.9263,1456.6442L4373.9263,1341.4554 Z"/>
</g>
</g>
</svg>