<svg xmlns="http://www.w3.org/2000/svg" width="108" height="29" viewBox="0 0 2000 530">
<path d="M0 0 C31.02 0 62.04 0 94 0 C94.04 11.63 94.07 23.25 94.11 35.23 C94.14 42.61 94.17 49.98 94.21 57.36 C94.26 69.05 94.31 80.75 94.35 92.45 C94.37 100.98 94.4 109.5 94.45 118.02 C94.47 122.53 94.49 127.04 94.5 131.54 C94.5 135.8 94.52 140.05 94.55 144.3 C94.56 145.85 94.57 147.4 94.57 148.96 C94.55 161.75 95.8 173.13 103 184 C103.68 185.03 104.36 186.06 105.06 187.12 C110.89 193.71 120.27 198.33 129 199 C144.32 199.87 157.23 198.62 169.23 188.03 C181.23 175.6 182.3 159.65 182.32 143.27 C182.33 141.7 182.34 140.13 182.35 138.57 C182.38 134.34 182.39 130.11 182.4 125.88 C182.42 121.45 182.45 117.02 182.47 112.59 C182.52 104.22 182.56 95.84 182.59 87.46 C182.63 76.14 182.7 64.81 182.76 53.48 C182.85 35.66 182.92 17.83 183 0 C213.36 0 243.72 0 275 0 C275.04 36 275.08 72 275.1 108 C275.1 112.26 275.11 116.52 275.11 120.78 C275.11 122.05 275.11 122.05 275.11 123.34 C275.12 137.04 275.14 150.73 275.15 164.43 C275.17 178.49 275.18 192.56 275.19 206.63 C275.19 215.3 275.2 223.97 275.22 232.64 C275.23 238.6 275.23 244.56 275.23 250.52 C275.23 253.94 275.23 257.37 275.24 260.8 C275.33 296.64 275.33 296.64 270.69 312.81 C270.47 313.6 270.25 314.39 270.03 315.2 C261.02 346.91 241.82 370.75 213.37 386.9 C187.88 400.8 159.61 404.66 131 406 C130.13 406.04 129.26 406.08 128.37 406.13 C93.18 407.55 54.91 399.15 24 382 C22.49 378.98 22.86 375.86 22.87 372.55 C22.87 371.79 22.87 371.02 22.87 370.23 C22.86 367.68 22.86 365.14 22.87 362.59 C22.87 360.83 22.87 359.07 22.86 357.3 C22.86 353.6 22.86 349.91 22.87 346.21 C22.88 341.46 22.87 336.71 22.87 331.96 C22.86 328.32 22.86 324.68 22.87 321.03 C22.87 319.28 22.87 317.53 22.86 315.78 C22.86 313.34 22.87 310.89 22.87 308.45 C22.87 307.72 22.87 306.99 22.86 306.24 C22.89 301.23 22.89 301.23 24 299 C29.34 299.48 32.73 300.72 37.25 303.56 C56.57 315.17 77.8 321.17 100 324 C101.03 324.13 102.06 324.27 103.12 324.4 C124.29 326.7 149.1 325.47 166.56 312.03 C177.94 302.43 182.42 291.44 183.78 276.86 C184.19 271.54 184.37 266.21 184.56 260.88 C184.63 259.15 184.63 259.15 184.69 257.4 C184.8 254.6 184.9 251.8 185 249 C181.78 252.17 178.72 255.41 175.75 258.81 C163.36 272.5 147.83 282.34 129 284 C100.66 285.06 100.66 285.06 87 282 C85.8 281.73 84.6 281.46 83.37 281.19 C56.02 274.45 32.79 259.37 18 235 C2.99 208.17 -0.19 179.48 -0.11 149.17 C-0.11 147.53 -0.11 145.9 -0.11 144.26 C-0.11 139.86 -0.11 135.46 -0.1 131.06 C-0.1 126.45 -0.09 121.83 -0.09 117.22 C-0.09 108.5 -0.08 99.78 -0.07 91.06 C-0.06 79.26 -0.05 67.47 -0.05 55.67 C-0.04 37.11 -0.02 18.56 0 0 Z " fill="#A2A2A2" transform="translate(1551,122)"/>
<path d="M0 0 C30.69 0 61.38 0 93 0 C93.33 48.51 93.66 97.02 94 147 C97.47 142.55 97.47 142.55 101 138 C120.57 116.82 146.58 109.52 174.5 107.78 C208.54 106.82 239.73 119.43 264.4 142.45 C292.95 170.08 305.3 211.79 306.2 250.61 C306.45 272.78 304.66 293.79 298 315 C297.79 315.67 297.58 316.34 297.36 317.03 C291.75 334.44 283 351.17 271 365 C270.56 365.51 270.11 366.03 269.66 366.56 C243.38 396.77 208.15 412.29 168.54 415.47 C127.51 418.21 83.24 410 51.28 382.67 C47.05 378.92 42.89 375.1 39 371 C38.43 370.41 37.86 369.83 37.28 369.23 C17.06 347.6 6.86 318.93 2.31 290.12 C2.19 289.38 2.07 288.64 1.95 287.88 C-0.55 270.71 -0.14 253.2 -0.11 235.91 C-0.11 233.32 -0.11 230.74 -0.11 228.15 C-0.11 222.63 -0.11 217.1 -0.11 211.58 C-0.1 203.59 -0.09 195.6 -0.09 187.61 C-0.09 174.64 -0.08 161.67 -0.08 148.7 C-0.07 136.12 -0.06 123.53 -0.05 110.95 C-0.05 110.17 -0.05 109.39 -0.05 108.59 C-0.05 104.69 -0.05 100.79 -0.05 96.88 C-0.04 64.59 -0.02 32.29 0 0 Z M110 207 C103.86 214.67 99.13 222.63 96 232 C95.68 232.9 95.36 233.8 95.04 234.73 C88.99 255.41 91.94 279.5 101.8 298.46 C109.78 312.97 121.34 323.34 137 329 C151.4 333.09 166.39 331.62 179.57 324.49 C195.5 314.72 206.08 298.63 210.44 280.56 C215.19 258.36 212.47 235.05 200.88 215.44 C191.61 201.62 179.42 192.9 163.05 189.44 C143.51 186.63 123.56 192.25 110 207 Z " fill="#252525" transform="translate(3,1)"/>
<path d="M0 0 C1.25 1.02 2.5 2.04 3.75 3.06 C23.75 20.51 36.03 46.86 41.75 72.31 C41.95 73.19 42.15 74.06 42.35 74.97 C46.64 95.4 46.29 116.04 46.24 136.8 C46.23 141.17 46.23 145.55 46.23 149.92 C46.23 157.24 46.22 164.56 46.21 171.88 C46.19 180.35 46.18 188.82 46.19 197.29 C46.19 206.33 46.18 215.37 46.17 224.41 C46.17 227.01 46.17 229.61 46.17 232.21 C46.17 236.28 46.16 240.35 46.15 244.42 C46.15 245.92 46.15 247.42 46.15 248.91 C46.15 250.94 46.14 252.98 46.13 255.01 C46.13 256.15 46.13 257.29 46.13 258.46 C46 261 46 261 45 262 C42.23 262.1 39.49 262.13 36.72 262.11 C35.41 262.11 35.41 262.11 34.09 262.11 C31.2 262.11 28.32 262.11 25.43 262.1 C23.44 262.1 21.45 262.09 19.45 262.09 C14.19 262.09 8.93 262.08 3.67 262.07 C-2.63 262.06 -8.93 262.05 -15.24 262.05 C-24.83 262.04 -34.41 262.02 -44 262 C-44 249.13 -44 236.26 -44 223 C-46.72 225.72 -48.3 227.99 -50.25 231.25 C-53.35 236.21 -56.72 240.06 -61 244 C-62.14 245.24 -62.14 245.24 -63.31 246.5 C-81.36 263.29 -105.12 269.42 -129.19 269.31 C-131.1 269.3 -131.1 269.3 -133.06 269.3 C-142.68 269.17 -151.7 268.54 -161 266 C-162.09 265.7 -162.09 265.7 -163.2 265.4 C-194.89 256.39 -220.93 234.62 -237.12 206.03 C-260.16 163.7 -263.54 113.13 -251 67 C-244.53 45.22 -233.6 26.49 -218 10 C-217.25 9.19 -216.5 8.38 -215.73 7.54 C-162.9 -47.92 -56.71 -50.72 0 0 Z M-146 65 C-161.45 83.92 -165.98 106.4 -163.78 130.38 C-161.52 148.74 -154.28 166.88 -139.69 178.91 C-125.6 189.29 -109.67 191.74 -92.5 189.44 C-85.42 187.96 -79.23 184.53 -73 181 C-72.25 180.59 -71.49 180.19 -70.72 179.77 C-57.26 171.25 -50.1 152.55 -46.58 137.89 C-42.05 115.26 -44.47 92.17 -57.15 72.7 C-65.86 60.16 -77.86 52.31 -92.75 48.75 C-112.87 45.25 -131.49 50.64 -146 65 Z " fill="#252525" transform="translate(750,144)"/>
<path d="M0 0 C40.06 -0.83 77.39 10.37 106.64 38.31 C125.67 57.8 136.43 83.3 140.08 110.12 C140.17 110.76 140.25 111.4 140.34 112.06 C141.34 120.52 141.21 129 141.19 137.5 C141.19 139.25 141.19 140.99 141.19 142.74 C141.19 147.45 141.19 152.16 141.18 156.88 C141.17 161.81 141.17 166.74 141.17 171.68 C141.17 181.01 141.16 190.34 141.15 199.67 C141.14 212.29 141.13 224.91 141.13 237.53 C141.12 257.39 141.1 277.26 141.08 297.12 C110.39 297.12 79.7 297.12 48.08 297.12 C48.04 285.17 48 273.21 47.96 260.9 C47.93 253.31 47.9 245.72 47.87 238.13 C47.81 226.1 47.76 214.07 47.73 202.03 C47.71 193.26 47.68 184.5 47.63 175.73 C47.61 171.09 47.59 166.46 47.58 161.82 C47.57 157.44 47.55 153.07 47.52 148.69 C47.52 147.1 47.51 145.5 47.51 143.91 C47.53 127.85 46.36 109.55 34.95 97.18 C24.94 87.99 12.38 85.46 -0.8 85.8 C-10.56 86.34 -20.13 89.92 -27.48 96.37 C-36.46 106.5 -41.01 116.63 -41.08 130.33 C-41.09 131.04 -41.09 131.76 -41.1 132.49 C-41.11 134.88 -41.12 137.27 -41.13 139.66 C-41.14 141.38 -41.15 143.09 -41.16 144.81 C-41.18 149.46 -41.21 154.11 -41.23 158.76 C-41.25 163.63 -41.27 168.49 -41.3 173.35 C-41.35 182.56 -41.4 191.77 -41.44 200.98 C-41.5 213.42 -41.56 225.87 -41.63 238.31 C-41.73 257.91 -41.83 277.52 -41.92 297.12 C-72.94 297.12 -103.96 297.12 -135.92 297.12 C-136 254.46 -136 254.46 -136.02 236.5 C-136.03 224.13 -136.05 211.76 -136.07 199.39 C-136.09 190.38 -136.11 181.37 -136.11 172.36 C-136.11 167.59 -136.12 162.83 -136.13 158.06 C-136.15 153.56 -136.15 149.06 -136.15 144.56 C-136.15 142.93 -136.15 141.29 -136.16 139.65 C-136.23 124.94 -135.35 110.16 -131.86 95.81 C-131.65 94.95 -131.44 94.08 -131.22 93.2 C-125.52 71.22 -114.64 53.24 -98.92 37.12 C-98.34 36.48 -97.76 35.84 -97.16 35.18 C-75.11 11.35 -38.63 1.75 -7.28 0.21 C-4.85 0.15 -2.43 0.07 0 0 Z " fill="#50B877" transform="translate(979.921875,107.87890625)"/>
<path d="M0 0 C30.36 0 60.72 0 92 0 C92 19.8 92 39.6 92 60 C113.78 60 135.56 60 158 60 C158 86.4 158 112.8 158 140 C136.22 140 114.44 140 92 140 C92.09 157.35 92.09 157.35 92.21 174.7 C92.26 181.78 92.31 188.87 92.35 195.95 C92.37 201.66 92.41 207.37 92.46 213.09 C92.48 215.26 92.49 217.43 92.5 219.61 C92.51 222.66 92.54 225.72 92.57 228.78 C92.57 229.67 92.56 230.56 92.56 231.47 C92.69 240.31 94.61 248.34 100.25 255.31 C107.52 262.35 116.98 262.41 126.5 262.3 C133.89 262.03 141.14 260.73 148.41 259.42 C149.42 259.24 150.44 259.06 151.48 258.88 C152.38 258.71 153.27 258.54 154.2 258.37 C157 258 157 258 164 258 C164 285.72 164 313.44 164 342 C129.02 349.36 83.66 356.95 50 340 C48.61 339.32 48.61 339.32 47.18 338.63 C40.46 335.18 34.69 330.97 29 326 C28.4 325.48 27.79 324.96 27.17 324.43 C10.61 309.06 1.93 287.19 0 265 C-0.14 260.87 -0.13 256.75 -0.11 252.62 C-0.11 251.4 -0.11 250.18 -0.11 248.92 C-0.11 245.6 -0.11 242.27 -0.1 238.95 C-0.1 235.47 -0.09 231.98 -0.09 228.5 C-0.09 221.92 -0.08 215.33 -0.07 208.75 C-0.06 201.25 -0.06 193.75 -0.05 186.25 C-0.04 170.84 -0.02 155.42 0 140 C-13.86 140 -27.72 140 -42 140 C-42 113.6 -42 87.2 -42 60 C-28.14 60 -14.28 60 0 60 C0 40.2 0 20.4 0 0 Z " fill="#A2A2A2" transform="translate(1348,62)"/>
<path d="M0 0 C30.69 0 61.38 0 93 0 C93 93.72 93 187.44 93 284 C62.31 284 31.62 284 0 284 C0 190.28 0 96.56 0 0 Z " fill="#A2A2A2" transform="translate(1175,122)"/>
<path d="M0 0 C30.69 0 61.38 0 93 0 C93 93.72 93 187.44 93 284 C62.64 284 32.28 284 1 284 C0 283 0 283 -0.12 281.06 C-0.12 280.2 -0.12 279.34 -0.12 278.46 C-0.13 277.47 -0.13 276.48 -0.13 275.46 C-0.13 274.37 -0.12 273.27 -0.12 272.14 C-0.12 270.98 -0.12 269.82 -0.12 268.63 C-0.12 265.41 -0.12 262.18 -0.12 258.96 C-0.11 255.49 -0.11 252.01 -0.11 248.54 C-0.11 242.52 -0.11 236.5 -0.11 230.48 C-0.1 221.78 -0.1 213.08 -0.09 204.37 C-0.09 190.25 -0.08 176.13 -0.08 162.01 C-0.07 148.29 -0.06 134.58 -0.05 120.86 C-0.05 120.01 -0.05 119.17 -0.05 118.29 C-0.05 114.06 -0.05 109.82 -0.05 105.58 C-0.04 70.38 -0.02 35.19 0 0 Z " fill="#252525" transform="translate(354,122)"/>
<path d="M0 0 C9.75 9.08 14.24 20.97 15.03 34.07 C15.04 48.73 11.88 62.17 2.03 73.41 C1.28 74.32 1.28 74.32 0.52 75.24 C-8.84 85.66 -22.91 89 -36.34 90.22 C-52.45 91.01 -67.1 87.29 -79.97 77.41 C-90.78 67.5 -95.09 55.29 -96.25 40.86 C-96.63 26.34 -93.22 13.33 -83.78 2.16 C-62.77 -19.92 -22.88 -18.48 0 0 Z " fill="#EE4343" transform="translate(1978.96875,324.58984375)"/>
<path d="M0 0 C1.64 0.02 1.64 0.02 3.32 0.03 C18.94 0.33 32.98 4.1 44.59 15.18 C53.99 25.64 56.28 37.59 55.84 51.22 C55.16 63.71 50.33 74.41 41.56 83.38 C38.68 85.58 35.68 87.51 32.56 89.38 C31.93 89.76 31.31 90.14 30.66 90.54 C16.33 98.51 -3.43 98.59 -19.06 94.81 C-31.96 91.06 -42.5 84.13 -49.38 72.49 C-55.55 60.21 -56.89 43.88 -52.81 30.75 C-48.36 19.6 -41.04 10.83 -30.12 5.56 C-20.17 1.55 -10.72 -0.14 0 0 Z " fill="#A2A2A2" transform="translate(1220.4375,0.625)"/>
<path d="M0 0 C0.83 0.6 1.66 1.21 2.52 1.83 C10.48 8.27 16.7 17.62 18 28 C19.06 44.09 17.97 58.31 7 71 C1.17 77.26 -4.98 81.09 -13 84 C-13.86 84.32 -14.71 84.64 -15.59 84.97 C-31.62 89.94 -51.07 88.25 -66.19 81.38 C-78.67 74.62 -85.02 65.67 -89.87 52.66 C-93.69 38.92 -91.05 23.64 -84.43 11.28 C-77.91 0.87 -66.38 -5.1 -54.7 -7.92 C-37.2 -11.46 -14.92 -10.88 0 0 Z " fill="#252525" transform="translate(437,10)"/>
<path d="M0 0 C0.33 0 0.66 0 1 0 C1.26 6.77 1.13 13.5 -1 20 C-1.66 20.33 -2.32 20.66 -3 21 C-2.54 13.81 -1.75 7 0 0 Z " fill="#0F0F0F" transform="translate(497,219)"/>
<path d="M0 0 C0.66 0 1.32 0 2 0 C2.14 1.07 2.29 2.14 2.44 3.25 C2.88 6.79 2.88 6.79 3.69 9.31 C3.79 9.87 3.89 10.43 4 11 C3.34 11.66 2.68 12.32 2 13 C-0.29 4.57 -0.29 4.57 0 0 Z " fill="#111111" transform="translate(496,300)"/>
</svg>